<mxfile host="app.diagrams.net" modified="2024-03-14T04:17:16.855Z" agent="Mozilla/5.0 (Windows NT 10.0; Win64; x64) AppleWebKit/537.36 (KHTML, like Gecko) Chrome/121.0.0.0 Safari/537.36 OPR/107.0.0.0 (Edition Yx GX)" etag="3njrabd-9-zO_x-C_u1u" version="24.0.1" type="device">
  <diagram name="Страница — 1" id="qtTj4QE0dgnF-Fl3R3aX">
    <mxGraphModel dx="3122" dy="2361" grid="1" gridSize="10" guides="1" tooltips="1" connect="1" arrows="1" fold="1" page="1" pageScale="1" pageWidth="827" pageHeight="1169" math="0" shadow="0">
      <root>
        <mxCell id="0" />
        <mxCell id="1" parent="0" />
        <mxCell id="UfYAjE74CpJN3u23NlH2-1" value="&lt;span style=&quot;text-align: left;&quot;&gt;+&amp;nbsp;partial class MainWindow&lt;/span&gt;" style="swimlane;fontStyle=0;childLayout=stackLayout;horizontal=1;startSize=30;horizontalStack=0;resizeParent=1;resizeParentMax=0;resizeLast=0;collapsible=1;marginBottom=0;whiteSpace=wrap;html=1;" vertex="1" parent="1">
          <mxGeometry x="288" y="150" width="250" height="450" as="geometry" />
        </mxCell>
        <mxCell id="UfYAjE74CpJN3u23NlH2-2" value="+ superColor: string;" style="text;strokeColor=none;fillColor=none;align=left;verticalAlign=middle;spacingLeft=4;spacingRight=4;overflow=hidden;points=[[0,0.5],[1,0.5]];portConstraint=eastwest;rotatable=0;whiteSpace=wrap;html=1;" vertex="1" parent="UfYAjE74CpJN3u23NlH2-1">
          <mxGeometry y="30" width="250" height="30" as="geometry" />
        </mxCell>
        <mxCell id="UfYAjE74CpJN3u23NlH2-3" value="+ MainWindow" style="text;strokeColor=none;fillColor=none;align=left;verticalAlign=middle;spacingLeft=4;spacingRight=4;overflow=hidden;points=[[0,0.5],[1,0.5]];portConstraint=eastwest;rotatable=0;whiteSpace=wrap;html=1;" vertex="1" parent="UfYAjE74CpJN3u23NlH2-1">
          <mxGeometry y="60" width="250" height="30" as="geometry" />
        </mxCell>
        <mxCell id="UfYAjE74CpJN3u23NlH2-4" value="+ ChangeColor : string" style="text;strokeColor=none;fillColor=none;align=left;verticalAlign=middle;spacingLeft=4;spacingRight=4;overflow=hidden;points=[[0,0.5],[1,0.5]];portConstraint=eastwest;rotatable=0;whiteSpace=wrap;html=1;" vertex="1" parent="UfYAjE74CpJN3u23NlH2-1">
          <mxGeometry y="90" width="250" height="30" as="geometry" />
        </mxCell>
        <mxCell id="UfYAjE74CpJN3u23NlH2-5" value="+ Stilisation1: void" style="text;strokeColor=none;fillColor=none;align=left;verticalAlign=middle;spacingLeft=4;spacingRight=4;overflow=hidden;points=[[0,0.5],[1,0.5]];portConstraint=eastwest;rotatable=0;whiteSpace=wrap;html=1;" vertex="1" parent="UfYAjE74CpJN3u23NlH2-1">
          <mxGeometry y="120" width="250" height="30" as="geometry" />
        </mxCell>
        <mxCell id="UfYAjE74CpJN3u23NlH2-6" value="+ Stilisation2: void" style="text;strokeColor=none;fillColor=none;align=left;verticalAlign=middle;spacingLeft=4;spacingRight=4;overflow=hidden;points=[[0,0.5],[1,0.5]];portConstraint=eastwest;rotatable=0;whiteSpace=wrap;html=1;" vertex="1" parent="UfYAjE74CpJN3u23NlH2-1">
          <mxGeometry y="150" width="250" height="30" as="geometry" />
        </mxCell>
        <mxCell id="UfYAjE74CpJN3u23NlH2-7" value="+ Stilisation3: void" style="text;strokeColor=none;fillColor=none;align=left;verticalAlign=middle;spacingLeft=4;spacingRight=4;overflow=hidden;points=[[0,0.5],[1,0.5]];portConstraint=eastwest;rotatable=0;whiteSpace=wrap;html=1;" vertex="1" parent="UfYAjE74CpJN3u23NlH2-1">
          <mxGeometry y="180" width="250" height="30" as="geometry" />
        </mxCell>
        <mxCell id="UfYAjE74CpJN3u23NlH2-8" value="+ Stilisation4: void" style="text;strokeColor=none;fillColor=none;align=left;verticalAlign=middle;spacingLeft=4;spacingRight=4;overflow=hidden;points=[[0,0.5],[1,0.5]];portConstraint=eastwest;rotatable=0;whiteSpace=wrap;html=1;" vertex="1" parent="UfYAjE74CpJN3u23NlH2-1">
          <mxGeometry y="210" width="250" height="30" as="geometry" />
        </mxCell>
        <mxCell id="UfYAjE74CpJN3u23NlH2-9" value="- TextBox_TextChanged: void" style="text;strokeColor=none;fillColor=none;align=left;verticalAlign=middle;spacingLeft=4;spacingRight=4;overflow=hidden;points=[[0,0.5],[1,0.5]];portConstraint=eastwest;rotatable=0;whiteSpace=wrap;html=1;" vertex="1" parent="UfYAjE74CpJN3u23NlH2-1">
          <mxGeometry y="240" width="250" height="30" as="geometry" />
        </mxCell>
        <mxCell id="UfYAjE74CpJN3u23NlH2-10" value="- MainWindow_Loaded: void" style="text;strokeColor=none;fillColor=none;align=left;verticalAlign=middle;spacingLeft=4;spacingRight=4;overflow=hidden;points=[[0,0.5],[1,0.5]];portConstraint=eastwest;rotatable=0;whiteSpace=wrap;html=1;" vertex="1" parent="UfYAjE74CpJN3u23NlH2-1">
          <mxGeometry y="270" width="250" height="30" as="geometry" />
        </mxCell>
        <mxCell id="UfYAjE74CpJN3u23NlH2-11" value="- MainWindow_Closing: void" style="text;strokeColor=none;fillColor=none;align=left;verticalAlign=middle;spacingLeft=4;spacingRight=4;overflow=hidden;points=[[0,0.5],[1,0.5]];portConstraint=eastwest;rotatable=0;whiteSpace=wrap;html=1;" vertex="1" parent="UfYAjE74CpJN3u23NlH2-1">
          <mxGeometry y="300" width="250" height="30" as="geometry" />
        </mxCell>
        <mxCell id="UfYAjE74CpJN3u23NlH2-12" value="- SendBUTTON_Click_1: void" style="text;strokeColor=none;fillColor=none;align=left;verticalAlign=middle;spacingLeft=4;spacingRight=4;overflow=hidden;points=[[0,0.5],[1,0.5]];portConstraint=eastwest;rotatable=0;whiteSpace=wrap;html=1;" vertex="1" parent="UfYAjE74CpJN3u23NlH2-1">
          <mxGeometry y="330" width="250" height="30" as="geometry" />
        </mxCell>
        <mxCell id="UfYAjE74CpJN3u23NlH2-13" value="- Back_BUTTION_Click: void" style="text;strokeColor=none;fillColor=none;align=left;verticalAlign=middle;spacingLeft=4;spacingRight=4;overflow=hidden;points=[[0,0.5],[1,0.5]];portConstraint=eastwest;rotatable=0;whiteSpace=wrap;html=1;" vertex="1" parent="UfYAjE74CpJN3u23NlH2-1">
          <mxGeometry y="360" width="250" height="30" as="geometry" />
        </mxCell>
        <mxCell id="UfYAjE74CpJN3u23NlH2-14" value="- delete_BUTTON_Click: void" style="text;strokeColor=none;fillColor=none;align=left;verticalAlign=middle;spacingLeft=4;spacingRight=4;overflow=hidden;points=[[0,0.5],[1,0.5]];portConstraint=eastwest;rotatable=0;whiteSpace=wrap;html=1;" vertex="1" parent="UfYAjE74CpJN3u23NlH2-1">
          <mxGeometry y="390" width="250" height="30" as="geometry" />
        </mxCell>
        <mxCell id="UfYAjE74CpJN3u23NlH2-15" value="- Window_Closing2: void" style="text;strokeColor=none;fillColor=none;align=left;verticalAlign=middle;spacingLeft=4;spacingRight=4;overflow=hidden;points=[[0,0.5],[1,0.5]];portConstraint=eastwest;rotatable=0;whiteSpace=wrap;html=1;" vertex="1" parent="UfYAjE74CpJN3u23NlH2-1">
          <mxGeometry y="420" width="250" height="30" as="geometry" />
        </mxCell>
        <mxCell id="UfYAjE74CpJN3u23NlH2-17" value="&lt;span style=&quot;text-align: left;&quot;&gt;+&amp;nbsp;partial class Window1&lt;/span&gt;" style="swimlane;fontStyle=0;childLayout=stackLayout;horizontal=1;startSize=30;horizontalStack=0;resizeParent=1;resizeParentMax=0;resizeLast=0;collapsible=1;marginBottom=0;whiteSpace=wrap;html=1;" vertex="1" parent="1">
          <mxGeometry x="-70" y="-190" width="250" height="240" as="geometry" />
        </mxCell>
        <mxCell id="UfYAjE74CpJN3u23NlH2-25" value="- ChangeColorVia: void" style="text;strokeColor=none;fillColor=none;align=left;verticalAlign=middle;spacingLeft=4;spacingRight=4;overflow=hidden;points=[[0,0.5],[1,0.5]];portConstraint=eastwest;rotatable=0;whiteSpace=wrap;html=1;" vertex="1" parent="UfYAjE74CpJN3u23NlH2-17">
          <mxGeometry y="30" width="250" height="30" as="geometry" />
        </mxCell>
        <mxCell id="UfYAjE74CpJN3u23NlH2-26" value="- Color1_Click: void" style="text;strokeColor=none;fillColor=none;align=left;verticalAlign=middle;spacingLeft=4;spacingRight=4;overflow=hidden;points=[[0,0.5],[1,0.5]];portConstraint=eastwest;rotatable=0;whiteSpace=wrap;html=1;" vertex="1" parent="UfYAjE74CpJN3u23NlH2-17">
          <mxGeometry y="60" width="250" height="30" as="geometry" />
        </mxCell>
        <mxCell id="UfYAjE74CpJN3u23NlH2-27" value="- Color2_Click: void" style="text;strokeColor=none;fillColor=none;align=left;verticalAlign=middle;spacingLeft=4;spacingRight=4;overflow=hidden;points=[[0,0.5],[1,0.5]];portConstraint=eastwest;rotatable=0;whiteSpace=wrap;html=1;" vertex="1" parent="UfYAjE74CpJN3u23NlH2-17">
          <mxGeometry y="90" width="250" height="30" as="geometry" />
        </mxCell>
        <mxCell id="UfYAjE74CpJN3u23NlH2-28" value="- Color3_Click: void" style="text;strokeColor=none;fillColor=none;align=left;verticalAlign=middle;spacingLeft=4;spacingRight=4;overflow=hidden;points=[[0,0.5],[1,0.5]];portConstraint=eastwest;rotatable=0;whiteSpace=wrap;html=1;" vertex="1" parent="UfYAjE74CpJN3u23NlH2-17">
          <mxGeometry y="120" width="250" height="30" as="geometry" />
        </mxCell>
        <mxCell id="UfYAjE74CpJN3u23NlH2-29" value="- Color4_Click: void" style="text;strokeColor=none;fillColor=none;align=left;verticalAlign=middle;spacingLeft=4;spacingRight=4;overflow=hidden;points=[[0,0.5],[1,0.5]];portConstraint=eastwest;rotatable=0;whiteSpace=wrap;html=1;" vertex="1" parent="UfYAjE74CpJN3u23NlH2-17">
          <mxGeometry y="150" width="250" height="30" as="geometry" />
        </mxCell>
        <mxCell id="UfYAjE74CpJN3u23NlH2-30" value="- LOGINin_Click: void" style="text;strokeColor=none;fillColor=none;align=left;verticalAlign=middle;spacingLeft=4;spacingRight=4;overflow=hidden;points=[[0,0.5],[1,0.5]];portConstraint=eastwest;rotatable=0;whiteSpace=wrap;html=1;" vertex="1" parent="UfYAjE74CpJN3u23NlH2-17">
          <mxGeometry y="180" width="250" height="30" as="geometry" />
        </mxCell>
        <mxCell id="UfYAjE74CpJN3u23NlH2-31" value="- Window_Closing: void" style="text;strokeColor=none;fillColor=none;align=left;verticalAlign=middle;spacingLeft=4;spacingRight=4;overflow=hidden;points=[[0,0.5],[1,0.5]];portConstraint=eastwest;rotatable=0;whiteSpace=wrap;html=1;" vertex="1" parent="UfYAjE74CpJN3u23NlH2-17">
          <mxGeometry y="210" width="250" height="30" as="geometry" />
        </mxCell>
        <mxCell id="UfYAjE74CpJN3u23NlH2-32" value="+ REGModule" style="swimlane;fontStyle=0;childLayout=stackLayout;horizontal=1;startSize=30;horizontalStack=0;resizeParent=1;resizeParentMax=0;resizeLast=0;collapsible=1;marginBottom=0;whiteSpace=wrap;html=1;" vertex="1" parent="1">
          <mxGeometry x="-70" y="150" width="250" height="540" as="geometry" />
        </mxCell>
        <mxCell id="UfYAjE74CpJN3u23NlH2-33" value="+ REGHello: string" style="text;strokeColor=none;fillColor=none;align=left;verticalAlign=middle;spacingLeft=4;spacingRight=4;overflow=hidden;points=[[0,0.5],[1,0.5]];portConstraint=eastwest;rotatable=0;whiteSpace=wrap;html=1;" vertex="1" parent="UfYAjE74CpJN3u23NlH2-32">
          <mxGeometry y="30" width="250" height="30" as="geometry" />
        </mxCell>
        <mxCell id="UfYAjE74CpJN3u23NlH2-40" value="+ REGHowAreYou: string" style="text;strokeColor=none;fillColor=none;align=left;verticalAlign=middle;spacingLeft=4;spacingRight=4;overflow=hidden;points=[[0,0.5],[1,0.5]];portConstraint=eastwest;rotatable=0;whiteSpace=wrap;html=1;" vertex="1" parent="UfYAjE74CpJN3u23NlH2-32">
          <mxGeometry y="60" width="250" height="30" as="geometry" />
        </mxCell>
        <mxCell id="UfYAjE74CpJN3u23NlH2-41" value="+ REGLewd: string" style="text;strokeColor=none;fillColor=none;align=left;verticalAlign=middle;spacingLeft=4;spacingRight=4;overflow=hidden;points=[[0,0.5],[1,0.5]];portConstraint=eastwest;rotatable=0;whiteSpace=wrap;html=1;" vertex="1" parent="UfYAjE74CpJN3u23NlH2-32">
          <mxGeometry y="90" width="250" height="30" as="geometry" />
        </mxCell>
        <mxCell id="UfYAjE74CpJN3u23NlH2-42" value="+ REGGoodbye: string" style="text;strokeColor=none;fillColor=none;align=left;verticalAlign=middle;spacingLeft=4;spacingRight=4;overflow=hidden;points=[[0,0.5],[1,0.5]];portConstraint=eastwest;rotatable=0;whiteSpace=wrap;html=1;" vertex="1" parent="UfYAjE74CpJN3u23NlH2-32">
          <mxGeometry y="120" width="250" height="30" as="geometry" />
        </mxCell>
        <mxCell id="UfYAjE74CpJN3u23NlH2-43" value="+ REGImage: string" style="text;strokeColor=none;fillColor=none;align=left;verticalAlign=middle;spacingLeft=4;spacingRight=4;overflow=hidden;points=[[0,0.5],[1,0.5]];portConstraint=eastwest;rotatable=0;whiteSpace=wrap;html=1;" vertex="1" parent="UfYAjE74CpJN3u23NlH2-32">
          <mxGeometry y="150" width="250" height="30" as="geometry" />
        </mxCell>
        <mxCell id="UfYAjE74CpJN3u23NlH2-44" value="+ REGMultiply: string" style="text;strokeColor=none;fillColor=none;align=left;verticalAlign=middle;spacingLeft=4;spacingRight=4;overflow=hidden;points=[[0,0.5],[1,0.5]];portConstraint=eastwest;rotatable=0;whiteSpace=wrap;html=1;" vertex="1" parent="UfYAjE74CpJN3u23NlH2-32">
          <mxGeometry y="180" width="250" height="30" as="geometry" />
        </mxCell>
        <mxCell id="UfYAjE74CpJN3u23NlH2-45" value="+ REGPlus: string" style="text;strokeColor=none;fillColor=none;align=left;verticalAlign=middle;spacingLeft=4;spacingRight=4;overflow=hidden;points=[[0,0.5],[1,0.5]];portConstraint=eastwest;rotatable=0;whiteSpace=wrap;html=1;" vertex="1" parent="UfYAjE74CpJN3u23NlH2-32">
          <mxGeometry y="210" width="250" height="30" as="geometry" />
        </mxCell>
        <mxCell id="UfYAjE74CpJN3u23NlH2-46" value="+ REGMinus: string" style="text;strokeColor=none;fillColor=none;align=left;verticalAlign=middle;spacingLeft=4;spacingRight=4;overflow=hidden;points=[[0,0.5],[1,0.5]];portConstraint=eastwest;rotatable=0;whiteSpace=wrap;html=1;" vertex="1" parent="UfYAjE74CpJN3u23NlH2-32">
          <mxGeometry y="240" width="250" height="30" as="geometry" />
        </mxCell>
        <mxCell id="UfYAjE74CpJN3u23NlH2-47" value="+ REGDivision: string" style="text;strokeColor=none;fillColor=none;align=left;verticalAlign=middle;spacingLeft=4;spacingRight=4;overflow=hidden;points=[[0,0.5],[1,0.5]];portConstraint=eastwest;rotatable=0;whiteSpace=wrap;html=1;" vertex="1" parent="UfYAjE74CpJN3u23NlH2-32">
          <mxGeometry y="270" width="250" height="30" as="geometry" />
        </mxCell>
        <mxCell id="UfYAjE74CpJN3u23NlH2-48" value="+ REGTime: string" style="text;strokeColor=none;fillColor=none;align=left;verticalAlign=middle;spacingLeft=4;spacingRight=4;overflow=hidden;points=[[0,0.5],[1,0.5]];portConstraint=eastwest;rotatable=0;whiteSpace=wrap;html=1;" vertex="1" parent="UfYAjE74CpJN3u23NlH2-32">
          <mxGeometry y="300" width="250" height="30" as="geometry" />
        </mxCell>
        <mxCell id="UfYAjE74CpJN3u23NlH2-49" value="+ REGData: string" style="text;strokeColor=none;fillColor=none;align=left;verticalAlign=middle;spacingLeft=4;spacingRight=4;overflow=hidden;points=[[0,0.5],[1,0.5]];portConstraint=eastwest;rotatable=0;whiteSpace=wrap;html=1;" vertex="1" parent="UfYAjE74CpJN3u23NlH2-32">
          <mxGeometry y="330" width="250" height="30" as="geometry" />
        </mxCell>
        <mxCell id="UfYAjE74CpJN3u23NlH2-50" value="+ REGTemperature: string" style="text;strokeColor=none;fillColor=none;align=left;verticalAlign=middle;spacingLeft=4;spacingRight=4;overflow=hidden;points=[[0,0.5],[1,0.5]];portConstraint=eastwest;rotatable=0;whiteSpace=wrap;html=1;" vertex="1" parent="UfYAjE74CpJN3u23NlH2-32">
          <mxGeometry y="360" width="250" height="30" as="geometry" />
        </mxCell>
        <mxCell id="UfYAjE74CpJN3u23NlH2-51" value="+ CountLines: int" style="text;strokeColor=none;fillColor=none;align=left;verticalAlign=middle;spacingLeft=4;spacingRight=4;overflow=hidden;points=[[0,0.5],[1,0.5]];portConstraint=eastwest;rotatable=0;whiteSpace=wrap;html=1;" vertex="1" parent="UfYAjE74CpJN3u23NlH2-32">
          <mxGeometry y="390" width="250" height="30" as="geometry" />
        </mxCell>
        <mxCell id="UfYAjE74CpJN3u23NlH2-52" value="+ CreateImage: void" style="text;strokeColor=none;fillColor=none;align=left;verticalAlign=middle;spacingLeft=4;spacingRight=4;overflow=hidden;points=[[0,0.5],[1,0.5]];portConstraint=eastwest;rotatable=0;whiteSpace=wrap;html=1;" vertex="1" parent="UfYAjE74CpJN3u23NlH2-32">
          <mxGeometry y="420" width="250" height="30" as="geometry" />
        </mxCell>
        <mxCell id="UfYAjE74CpJN3u23NlH2-55" value="+ CreateImageUrl: void" style="text;strokeColor=none;fillColor=none;align=left;verticalAlign=middle;spacingLeft=4;spacingRight=4;overflow=hidden;points=[[0,0.5],[1,0.5]];portConstraint=eastwest;rotatable=0;whiteSpace=wrap;html=1;" vertex="1" parent="UfYAjE74CpJN3u23NlH2-32">
          <mxGeometry y="450" width="250" height="30" as="geometry" />
        </mxCell>
        <mxCell id="UfYAjE74CpJN3u23NlH2-53" value="+ DownloadImageAsync: Task" style="text;strokeColor=none;fillColor=none;align=left;verticalAlign=middle;spacingLeft=4;spacingRight=4;overflow=hidden;points=[[0,0.5],[1,0.5]];portConstraint=eastwest;rotatable=0;whiteSpace=wrap;html=1;" vertex="1" parent="UfYAjE74CpJN3u23NlH2-32">
          <mxGeometry y="480" width="250" height="30" as="geometry" />
        </mxCell>
        <mxCell id="UfYAjE74CpJN3u23NlH2-54" value="+ LoadImagesAsync: Task" style="text;strokeColor=none;fillColor=none;align=left;verticalAlign=middle;spacingLeft=4;spacingRight=4;overflow=hidden;points=[[0,0.5],[1,0.5]];portConstraint=eastwest;rotatable=0;whiteSpace=wrap;html=1;" vertex="1" parent="UfYAjE74CpJN3u23NlH2-32">
          <mxGeometry y="510" width="250" height="30" as="geometry" />
        </mxCell>
        <mxCell id="UfYAjE74CpJN3u23NlH2-56" value="Object" style="swimlane;fontStyle=0;childLayout=stackLayout;horizontal=1;startSize=30;horizontalStack=0;resizeParent=1;resizeParentMax=0;resizeLast=0;collapsible=1;marginBottom=0;whiteSpace=wrap;html=1;" vertex="1" parent="1">
          <mxGeometry x="620" y="140" width="250" height="330" as="geometry" />
        </mxCell>
        <mxCell id="UfYAjE74CpJN3u23NlH2-57" value="+ ToString: string" style="text;strokeColor=none;fillColor=none;align=left;verticalAlign=middle;spacingLeft=4;spacingRight=4;overflow=hidden;points=[[0,0.5],[1,0.5]];portConstraint=eastwest;rotatable=0;whiteSpace=wrap;html=1;" vertex="1" parent="UfYAjE74CpJN3u23NlH2-56">
          <mxGeometry y="30" width="250" height="30" as="geometry" />
        </mxCell>
        <mxCell id="UfYAjE74CpJN3u23NlH2-58" value="+ Equals: virtual bool" style="text;strokeColor=none;fillColor=none;align=left;verticalAlign=middle;spacingLeft=4;spacingRight=4;overflow=hidden;points=[[0,0.5],[1,0.5]];portConstraint=eastwest;rotatable=0;whiteSpace=wrap;html=1;" vertex="1" parent="UfYAjE74CpJN3u23NlH2-56">
          <mxGeometry y="60" width="250" height="30" as="geometry" />
        </mxCell>
        <mxCell id="UfYAjE74CpJN3u23NlH2-59" value="+ Equals: static bool" style="text;strokeColor=none;fillColor=none;align=left;verticalAlign=middle;spacingLeft=4;spacingRight=4;overflow=hidden;points=[[0,0.5],[1,0.5]];portConstraint=eastwest;rotatable=0;whiteSpace=wrap;html=1;" vertex="1" parent="UfYAjE74CpJN3u23NlH2-56">
          <mxGeometry y="90" width="250" height="30" as="geometry" />
        </mxCell>
        <mxCell id="UfYAjE74CpJN3u23NlH2-60" value="+ ReferenceEquals: static bool" style="text;strokeColor=none;fillColor=none;align=left;verticalAlign=middle;spacingLeft=4;spacingRight=4;overflow=hidden;points=[[0,0.5],[1,0.5]];portConstraint=eastwest;rotatable=0;whiteSpace=wrap;html=1;" vertex="1" parent="UfYAjE74CpJN3u23NlH2-56">
          <mxGeometry y="120" width="250" height="30" as="geometry" />
        </mxCell>
        <mxCell id="UfYAjE74CpJN3u23NlH2-61" value="+ GetHashCode: virtual int" style="text;strokeColor=none;fillColor=none;align=left;verticalAlign=middle;spacingLeft=4;spacingRight=4;overflow=hidden;points=[[0,0.5],[1,0.5]];portConstraint=eastwest;rotatable=0;whiteSpace=wrap;html=1;" vertex="1" parent="UfYAjE74CpJN3u23NlH2-56">
          <mxGeometry y="150" width="250" height="30" as="geometry" />
        </mxCell>
        <mxCell id="UfYAjE74CpJN3u23NlH2-62" value="+ GetType: extern Type" style="text;strokeColor=none;fillColor=none;align=left;verticalAlign=middle;spacingLeft=4;spacingRight=4;overflow=hidden;points=[[0,0.5],[1,0.5]];portConstraint=eastwest;rotatable=0;whiteSpace=wrap;html=1;" vertex="1" parent="UfYAjE74CpJN3u23NlH2-56">
          <mxGeometry y="180" width="250" height="30" as="geometry" />
        </mxCell>
        <mxCell id="UfYAjE74CpJN3u23NlH2-63" value="# MemberwiseClone: extern object" style="text;strokeColor=none;fillColor=none;align=left;verticalAlign=middle;spacingLeft=4;spacingRight=4;overflow=hidden;points=[[0,0.5],[1,0.5]];portConstraint=eastwest;rotatable=0;whiteSpace=wrap;html=1;" vertex="1" parent="UfYAjE74CpJN3u23NlH2-56">
          <mxGeometry y="210" width="250" height="30" as="geometry" />
        </mxCell>
        <mxCell id="UfYAjE74CpJN3u23NlH2-64" value="- FieldSetter: void" style="text;strokeColor=none;fillColor=none;align=left;verticalAlign=middle;spacingLeft=4;spacingRight=4;overflow=hidden;points=[[0,0.5],[1,0.5]];portConstraint=eastwest;rotatable=0;whiteSpace=wrap;html=1;" vertex="1" parent="UfYAjE74CpJN3u23NlH2-56">
          <mxGeometry y="240" width="250" height="30" as="geometry" />
        </mxCell>
        <mxCell id="UfYAjE74CpJN3u23NlH2-65" value="- FieldGetter: void" style="text;strokeColor=none;fillColor=none;align=left;verticalAlign=middle;spacingLeft=4;spacingRight=4;overflow=hidden;points=[[0,0.5],[1,0.5]];portConstraint=eastwest;rotatable=0;whiteSpace=wrap;html=1;" vertex="1" parent="UfYAjE74CpJN3u23NlH2-56">
          <mxGeometry y="270" width="250" height="30" as="geometry" />
        </mxCell>
        <mxCell id="UfYAjE74CpJN3u23NlH2-66" value="- GetFieldInfo: void" style="text;strokeColor=none;fillColor=none;align=left;verticalAlign=middle;spacingLeft=4;spacingRight=4;overflow=hidden;points=[[0,0.5],[1,0.5]];portConstraint=eastwest;rotatable=0;whiteSpace=wrap;html=1;" vertex="1" parent="UfYAjE74CpJN3u23NlH2-56">
          <mxGeometry y="300" width="250" height="30" as="geometry" />
        </mxCell>
        <mxCell id="UfYAjE74CpJN3u23NlH2-75" value="Window" style="swimlane;fontStyle=1;align=center;verticalAlign=top;childLayout=stackLayout;horizontal=1;startSize=26;horizontalStack=0;resizeParent=1;resizeParentMax=0;resizeLast=0;collapsible=1;marginBottom=0;whiteSpace=wrap;html=1;" vertex="1" parent="1">
          <mxGeometry x="288" y="-30" width="251" height="104" as="geometry" />
        </mxCell>
        <mxCell id="UfYAjE74CpJN3u23NlH2-76" value="+&amp;nbsp;partial class MainWindow" style="text;strokeColor=none;fillColor=none;align=left;verticalAlign=top;spacingLeft=4;spacingRight=4;overflow=hidden;rotatable=0;points=[[0,0.5],[1,0.5]];portConstraint=eastwest;whiteSpace=wrap;html=1;" vertex="1" parent="UfYAjE74CpJN3u23NlH2-75">
          <mxGeometry y="26" width="251" height="26" as="geometry" />
        </mxCell>
        <mxCell id="UfYAjE74CpJN3u23NlH2-78" value="+&amp;nbsp;partial class Window1" style="text;strokeColor=none;fillColor=none;align=left;verticalAlign=top;spacingLeft=4;spacingRight=4;overflow=hidden;rotatable=0;points=[[0,0.5],[1,0.5]];portConstraint=eastwest;whiteSpace=wrap;html=1;" vertex="1" parent="UfYAjE74CpJN3u23NlH2-75">
          <mxGeometry y="52" width="251" height="26" as="geometry" />
        </mxCell>
        <mxCell id="UfYAjE74CpJN3u23NlH2-77" value="+&amp;nbsp;&lt;span style=&quot;text-align: center;&quot;&gt;REGModule&lt;/span&gt;" style="text;strokeColor=none;fillColor=none;align=left;verticalAlign=top;spacingLeft=4;spacingRight=4;overflow=hidden;rotatable=0;points=[[0,0.5],[1,0.5]];portConstraint=eastwest;whiteSpace=wrap;html=1;" vertex="1" parent="UfYAjE74CpJN3u23NlH2-75">
          <mxGeometry y="78" width="251" height="26" as="geometry" />
        </mxCell>
        <mxCell id="UfYAjE74CpJN3u23NlH2-79" value="" style="endArrow=block;html=1;rounded=0;exitX=0.5;exitY=0;exitDx=0;exitDy=0;entryX=0.999;entryY=0.157;entryDx=0;entryDy=0;entryPerimeter=0;endFill=0;strokeWidth=4;startSize=6;endSize=12;" edge="1" parent="1" source="UfYAjE74CpJN3u23NlH2-56" target="UfYAjE74CpJN3u23NlH2-75">
          <mxGeometry width="50" height="50" relative="1" as="geometry">
            <mxPoint x="440" y="190" as="sourcePoint" />
            <mxPoint x="490" y="140" as="targetPoint" />
            <Array as="points">
              <mxPoint x="745" y="-14" />
            </Array>
          </mxGeometry>
        </mxCell>
        <mxCell id="UfYAjE74CpJN3u23NlH2-83" value="" style="endArrow=block;html=1;rounded=0;exitX=1;exitY=0.5;exitDx=0;exitDy=0;entryX=0.569;entryY=1.082;entryDx=0;entryDy=0;entryPerimeter=0;endFill=0;strokeWidth=4;startSize=6;endSize=12;" edge="1" parent="1" source="UfYAjE74CpJN3u23NlH2-54" target="UfYAjE74CpJN3u23NlH2-66">
          <mxGeometry width="50" height="50" relative="1" as="geometry">
            <mxPoint x="755" y="150" as="sourcePoint" />
            <mxPoint x="549" y="-4" as="targetPoint" />
            <Array as="points">
              <mxPoint x="760" y="675" />
            </Array>
          </mxGeometry>
        </mxCell>
        <mxCell id="UfYAjE74CpJN3u23NlH2-84" value="" style="endArrow=diamondThin;html=1;rounded=0;exitX=1.005;exitY=0.961;exitDx=0;exitDy=0;entryX=-0.008;entryY=-0.05;entryDx=0;entryDy=0;entryPerimeter=0;endFill=1;strokeWidth=4;startSize=6;endSize=12;exitPerimeter=0;" edge="1" parent="1" source="UfYAjE74CpJN3u23NlH2-44" target="UfYAjE74CpJN3u23NlH2-8">
          <mxGeometry width="50" height="50" relative="1" as="geometry">
            <mxPoint x="755" y="150" as="sourcePoint" />
            <mxPoint x="549" y="-4" as="targetPoint" />
            <Array as="points">
              <mxPoint x="230" y="359" />
            </Array>
          </mxGeometry>
        </mxCell>
        <mxCell id="UfYAjE74CpJN3u23NlH2-85" value="" style="endArrow=diamondThin;html=1;rounded=0;exitX=0.5;exitY=0;exitDx=0;exitDy=0;entryX=0.503;entryY=1.017;entryDx=0;entryDy=0;entryPerimeter=0;endFill=1;strokeWidth=4;startSize=6;endSize=12;" edge="1" parent="1" source="UfYAjE74CpJN3u23NlH2-32" target="UfYAjE74CpJN3u23NlH2-31">
          <mxGeometry width="50" height="50" relative="1" as="geometry">
            <mxPoint x="50" y="130" as="sourcePoint" />
            <mxPoint x="155" y="130" as="targetPoint" />
            <Array as="points">
              <mxPoint x="55" y="100" />
            </Array>
          </mxGeometry>
        </mxCell>
        <mxCell id="UfYAjE74CpJN3u23NlH2-86" value="" style="endArrow=block;html=1;rounded=0;exitX=0.5;exitY=0;exitDx=0;exitDy=0;entryX=0.49;entryY=0.974;entryDx=0;entryDy=0;entryPerimeter=0;endFill=0;strokeWidth=4;startSize=6;endSize=12;" edge="1" parent="1" source="UfYAjE74CpJN3u23NlH2-1" target="UfYAjE74CpJN3u23NlH2-77">
          <mxGeometry width="50" height="50" relative="1" as="geometry">
            <mxPoint x="755" y="150" as="sourcePoint" />
            <mxPoint x="549" y="-4" as="targetPoint" />
            <Array as="points">
              <mxPoint x="413" y="110" />
            </Array>
          </mxGeometry>
        </mxCell>
        <mxCell id="UfYAjE74CpJN3u23NlH2-87" value="" style="endArrow=block;html=1;rounded=0;exitX=0.997;exitY=0.111;exitDx=0;exitDy=0;endFill=0;strokeWidth=4;startSize=6;endSize=12;exitPerimeter=0;entryX=-0.003;entryY=0.029;entryDx=0;entryDy=0;entryPerimeter=0;" edge="1" parent="1" source="UfYAjE74CpJN3u23NlH2-31" target="UfYAjE74CpJN3u23NlH2-78">
          <mxGeometry width="50" height="50" relative="1" as="geometry">
            <mxPoint x="423" y="160" as="sourcePoint" />
            <mxPoint x="421" y="83" as="targetPoint" />
            <Array as="points">
              <mxPoint x="240" y="23" />
            </Array>
          </mxGeometry>
        </mxCell>
        <mxCell id="UfYAjE74CpJN3u23NlH2-88" value="" style="endArrow=block;html=1;rounded=0;endFill=0;strokeWidth=4;startSize=6;endSize=12;entryX=-0.003;entryY=0.029;entryDx=0;entryDy=0;entryPerimeter=0;strokeColor=#FF0000;" edge="1" parent="1">
          <mxGeometry width="50" height="50" relative="1" as="geometry">
            <mxPoint x="460" y="-110" as="sourcePoint" />
            <mxPoint x="818" y="-110" as="targetPoint" />
            <Array as="points">
              <mxPoint x="771" y="-110" />
            </Array>
          </mxGeometry>
        </mxCell>
        <mxCell id="UfYAjE74CpJN3u23NlH2-89" value="" style="endArrow=diamondThin;html=1;rounded=0;entryX=-0.008;entryY=-0.05;entryDx=0;entryDy=0;entryPerimeter=0;endFill=1;strokeWidth=4;startSize=6;endSize=12;strokeColor=#FF0000;" edge="1" parent="1">
          <mxGeometry width="50" height="50" relative="1" as="geometry">
            <mxPoint x="460" y="-190" as="sourcePoint" />
            <mxPoint x="815" y="-190" as="targetPoint" />
            <Array as="points">
              <mxPoint x="759" y="-190" />
            </Array>
          </mxGeometry>
        </mxCell>
        <mxCell id="UfYAjE74CpJN3u23NlH2-91" value="Агрегация" style="text;html=1;align=center;verticalAlign=middle;whiteSpace=wrap;rounded=0;fontStyle=1;fontSize=31;fontColor=#FF0000;" vertex="1" parent="1">
          <mxGeometry x="680" y="-230" width="60" height="30" as="geometry" />
        </mxCell>
        <mxCell id="UfYAjE74CpJN3u23NlH2-92" value="Наследование" style="text;html=1;align=center;verticalAlign=middle;whiteSpace=wrap;rounded=0;fontStyle=1;fontSize=31;fontColor=#FF0000;" vertex="1" parent="1">
          <mxGeometry x="650" y="-150" width="60" height="30" as="geometry" />
        </mxCell>
      </root>
    </mxGraphModel>
  </diagram>
</mxfile>
